<svg width="32" height="32" viewBox="0 0 32 32" fill="none" xmlns="http://www.w3.org/2000/svg">
<path d="M15.9997 0C24.8226 0 32 7.17794 32 16.0003C32 24.8226 24.8226 32 15.9997 32C7.17736 32 0 24.8226 0 16.0003C0 7.17794 7.17736 0 15.9997 0ZM20 6.66667H12C9.05448 6.66667 6.66667 9.05448 6.66667 12V20C6.66667 22.9455 9.05448 25.3333 12 25.3333H20C22.9455 25.3333 25.3333 22.9455 25.3333 20V12C25.3333 9.05448 22.9455 6.66667 20 6.66667ZM19.6863 8.31373C21.8954 8.31373 23.6863 10.1046 23.6863 12.3137V19.6863L23.6795 19.9213C23.5578 22.021 21.8165 23.6863 19.6863 23.6863H12.3137L12.0787 23.6795C9.97895 23.5578 8.31373 21.8165 8.31373 19.6863V12.3137L8.32052 12.0787C8.44218 9.97895 10.1835 8.31373 12.3137 8.31373H19.6863ZM15.7255 11.6078C13.1482 11.6078 11.0588 13.6972 11.0588 16.2745C11.0588 18.8518 13.1482 20.9412 15.7255 20.9412C18.3028 20.9412 20.3922 18.8518 20.3922 16.2745C20.3922 13.6972 18.3028 11.6078 15.7255 11.6078ZM15.7255 13.2549C17.3932 13.2549 18.7451 14.6068 18.7451 16.2745C18.7451 17.9422 17.3932 19.2941 15.7255 19.2941C14.0578 19.2941 12.7059 17.9422 12.7059 16.2745C12.7059 14.6068 14.0578 13.2549 15.7255 13.2549ZM20.9412 9.96078C20.3347 9.96078 19.8431 10.4524 19.8431 11.0588C19.8431 11.6653 20.3347 12.1569 20.9412 12.1569C21.5476 12.1569 22.0392 11.6653 22.0392 11.0588C22.0392 10.4524 21.5476 9.96078 20.9412 9.96078Z" fill="black" fill-opacity="0.87"/>
</svg>
